STARTFONT 2.3
FONT -FontForge-Butcherman-Book-R-Normal--12-120-72-72-P-65-ISO10646-1
SIZE 12 72 72  2
FONTBOUNDINGBOX 18 23 -1 -8
COMMENT "Generated by fontforge, http://fontforge.sourceforge.net"
COMMENT "Copyright (c) 2011, Typomondo, with Reserved Font Name  "Butcherman"."
STARTPROPERTIES 41
FOUNDRY "FontForge"
FAMILY_NAME "Butcherman"
WEIGHT_NAME "Book"
SLANT "R"
SETWIDTH_NAME "Normal"
ADD_STYLE_NAME ""
PIXEL_SIZE 12
POINT_SIZE 120
RESOLUTION_X 72
RESOLUTION_Y 72
SPACING "P"
AVERAGE_WIDTH 65
CHARSET_REGISTRY "ISO10646"
CHARSET_ENCODING "1"
FONTNAME_REGISTRY ""
CHARSET_COLLECTIONS "ISO8859-2 ISO8859-9 ISO8859-4 ISO10646-1"
BITS_PER_PIXEL 2
FONT_NAME "Butcherman-Regular"
FACE_NAME "Butcherman Regular"
COPYRIGHT "Copyright (c) 2011, Typomondo, with Reserved Font Name  "Butcherman"."
FONT_VERSION "001.004"
FONT_ASCENT 10
FONT_DESCENT 2
UNDERLINE_POSITION -1
UNDERLINE_THICKNESS 1
X_HEIGHT 8
CAP_HEIGHT 8
DEFAULT_CHAR 3
RAW_ASCENT 799
RAW_DESCENT 200
NORM_SPACE 2
RELATIVE_WEIGHT 40
RELATIVE_SETWIDTH 50
SUPERSCRIPT_X 0
SUPERSCRIPT_Y 4
SUPERSCRIPT_SIZE 7
SUBSCRIPT_X 0
SUBSCRIPT_Y 0
SUBSCRIPT_SIZE 7
AVG_LOWERCASE_WIDTH 70
AVG_UPPERCASE_WIDTH 66
ENDPROPERTIES
CHARS 331
STARTCHAR NULL.dup1
ENCODING 0
SWIDTH 161 0
DWIDTH 2 0
BBX 1 1 0 0
BITMAP
00
ENDCHAR
STARTCHAR CR
ENCODING 13
SWIDTH 161 0
DWIDTH 2 0
BBX 1 1 0 0
BITMAP
00
ENDCHAR
STARTCHAR space
ENCODING 32
SWIDTH 161 0
DWIDTH 2 0
BBX 1 1 0 0
BITMAP
00
ENDCHAR
STARTCHAR exclam
ENCODING 33
SWIDTH 350 0
DWIDTH 4 0
BBX 4 15 0 0
BITMAP
69
BE
7D
7D
7C
3C
2C
2C
2C
14
04
7E
7E
3E
15
ENDCHAR
STARTCHAR quotedbl
ENCODING 34
SWIDTH 541 0
DWIDTH 7 0
BBX 6 5 0 4
BITMAP
69A0
7DE0
38E0
3890
1440
ENDCHAR
STARTCHAR numbersign
ENCODING 35
SWIDTH 583 0
DWIDTH 7 0
BBX 7 11 0 -1
BITMAP
0100
0624
0930
3FF8
3FF4
19D0
24C0
BAD0
BFD0
6240
5200
ENDCHAR
STARTCHAR dollar
ENCODING 36
SWIDTH 534 0
DWIDTH 6 0
BBX 6 15 0 -3
BITMAP
0100
0600
0600
0B80
3FE0
7FF0
BFF0
7DA0
7F80
1BD0
29D0
2FC0
0600
0600
0600
ENDCHAR
STARTCHAR percent
ENCODING 37
SWIDTH 828 0
DWIDTH 10 0
BBX 10 11 0 -1
BITMAP
000400
241800
BD2400
AE3400
A93280
6C63D0
14D3D0
01C690
0183C0
024000
020000
ENDCHAR
STARTCHAR ampersand
ENCODING 38
SWIDTH 522 0
DWIDTH 6 0
BBX 6 7 0 1
BITMAP
0600
0B00
6F90
BFE0
6F90
0B00
0500
ENDCHAR
STARTCHAR quotesingle
ENCODING 39
SWIDTH 300 0
DWIDTH 4 0
BBX 3 5 0 4
BITMAP
68
7C
38
38
14
ENDCHAR
STARTCHAR parenleft
ENCODING 40
SWIDTH 372 0
DWIDTH 4 0
BBX 5 12 0 -2
BITMAP
0740
1F00
3F00
7E00
7C00
B800
B800
7800
7C00
2E00
1F00
0100
ENDCHAR
STARTCHAR parenright
ENCODING 41
SWIDTH 338 0
DWIDTH 4 0
BBX 4 12 0 -2
BITMAP
A4
BC
7D
7D
2D
1D
1D
1D
1C
28
B4
50
ENDCHAR
STARTCHAR asterisk
ENCODING 42
SWIDTH 513 0
DWIDTH 6 0
BBX 6 7 0 3
BITMAP
0040
1980
1F40
6F90
6F90
0F40
1D80
ENDCHAR
STARTCHAR plus
ENCODING 43
SWIDTH 458 0
DWIDTH 6 0
BBX 5 5 0 2
BITMAP
0D00
5E40
7FC0
1E40
0E00
ENDCHAR
STARTCHAR comma
ENCODING 44
SWIDTH 361 0
DWIDTH 4 0
BBX 4 6 0 -2
BITMAP
7E
7E
7E
5A
0A
09
ENDCHAR
STARTCHAR hyphen
ENCODING 45
SWIDTH 478 0
DWIDTH 6 0
BBX 5 3 0 3
BITMAP
6A80
7F80
1540
ENDCHAR
STARTCHAR period
ENCODING 46
SWIDTH 374 0
DWIDTH 5 0
BBX 4 5 0 0
BITMAP
04
7E
7F
3F
15
ENDCHAR
STARTCHAR slash
ENCODING 47
SWIDTH 291 0
DWIDTH 4 0
BBX 4 10 0 -1
BITMAP
09
0C
0C
18
34
30
60
50
80
80
ENDCHAR
STARTCHAR zero
ENCODING 48
SWIDTH 528 0
DWIDTH 6 0
BBX 6 10 0 -1
BITMAP
1A40
3FD0
7FE0
7FE0
7AE0
75E0
75D0
3AC0
2F80
0600
ENDCHAR
STARTCHAR one
ENCODING 49
SWIDTH 366 0
DWIDTH 4 0
BBX 4 9 0 0
BITMAP
1A
FE
2F
2E
2E
1E
1D
1D
19
ENDCHAR
STARTCHAR two
ENCODING 50
SWIDTH 575 0
DWIDTH 7 0
BBX 7 10 0 -1
BITMAP
1F80
7FE0
7FF0
7FF0
79E0
16E0
03C0
1BE4
7FF8
6924
ENDCHAR
STARTCHAR three
ENCODING 51
SWIDTH 517 0
DWIDTH 6 0
BBX 6 10 0 -1
BITMAP
1A40
7FC0
7FE0
7FE0
7AE0
07D0
06D0
19D0
1FC0
0940
ENDCHAR
STARTCHAR four
ENCODING 52
SWIDTH 466 0
DWIDTH 6 0
BBX 6 12 0 -3
BITMAP
2E80
3E00
3E00
3D00
3C00
3A80
7A80
7F90
BFD0
0680
0240
0140
ENDCHAR
STARTCHAR five
ENCODING 53
SWIDTH 583 0
DWIDTH 7 0
BBX 7 10 0 -1
BITMAP
7FA4
7FF8
7FF4
7FF4
7950
7E80
1AD0
19D0
1FC0
0540
ENDCHAR
STARTCHAR six
ENCODING 54
SWIDTH 582 0
DWIDTH 7 0
BBX 7 10 0 -1
BITMAP
1A80
7FF0
BFF8
7FF4
7DF0
39A0
2EE0
2CB0
1FF0
0AA0
ENDCHAR
STARTCHAR seven
ENCODING 55
SWIDTH 624 0
DWIDTH 7 0
BBX 8 10 0 -1
BITMAP
6AFD
BFFC
7FF8
7FF4
15B4
00E0
01D0
02C0
0340
0700
ENDCHAR
STARTCHAR eight
ENCODING 56
SWIDTH 459 0
DWIDTH 6 0
BBX 5 10 0 -1
BITMAP
2E40
BFC0
7FC0
7F80
3780
3F40
2F40
2740
2F40
0500
ENDCHAR
STARTCHAR nine
ENCODING 57
SWIDTH 584 0
DWIDTH 7 0
BBX 7 10 0 -1
BITMAP
0A80
2FF0
7FF4
7FF4
7CF4
3FF4
19F0
2DE0
2FC0
0540
ENDCHAR
STARTCHAR colon
ENCODING 58
SWIDTH 386 0
DWIDTH 5 0
BBX 4 10 0 0
BITMAP
7F
3F
3F
15
00
04
7E
7F
3E
15
ENDCHAR
STARTCHAR semicolon
ENCODING 59
SWIDTH 375 0
DWIDTH 5 0
BBX 4 13 0 -2
BITMAP
04
7E
7E
7E
15
00
00
7E
7E
7E
1A
0A
09
ENDCHAR
STARTCHAR less
ENCODING 60
SWIDTH 459 0
DWIDTH 6 0
BBX 5 7 0 1
BITMAP
0540
1F80
2F00
BD00
7D00
2F00
0BC0
ENDCHAR
STARTCHAR equal
ENCODING 61
SWIDTH 485 0
DWIDTH 6 0
BBX 5 5 0 3
BITMAP
1540
7FC0
0000
7FC0
1540
ENDCHAR
STARTCHAR greater
ENCODING 62
SWIDTH 432 0
DWIDTH 5 0
BBX 5 7 0 1
BITMAP
5400
7D00
1F00
0B80
0F80
2E00
7C00
ENDCHAR
STARTCHAR question
ENCODING 63
SWIDTH 577 0
DWIDTH 7 0
BBX 6 12 0 -2
BITMAP
0500
2FD0
7FF0
7FF0
3AF0
02E0
03C0
0340
0000
0B40
0B40
0500
ENDCHAR
STARTCHAR at
ENCODING 64
SWIDTH 930 0
DWIDTH 11 0
BBX 11 14 0 -3
BITMAP
005000
02FE00
0A5680
19FDE0
33FE74
63FE78
A2DD38
619D38
62DE28
72EFB4
35B9E0
1D0000
0BA900
01A400
ENDCHAR
STARTCHAR A
ENCODING 65
SWIDTH 494 0
DWIDTH 6 0
BBX 6 11 0 -2
BITMAP
6A90
2FC0
2F80
2F80
2F40
2B40
2B40
2F40
2B40
2600
0100
ENDCHAR
STARTCHAR B
ENCODING 66
SWIDTH 517 0
DWIDTH 6 0
BBX 6 10 0 -1
BITMAP
6B90
3FE0
2FE0
2FE0
2DD0
2EC0
2EC0
1DC0
1FC0
0140
ENDCHAR
STARTCHAR C
ENCODING 67
SWIDTH 504 0
DWIDTH 6 0
BBX 6 10 0 -1
BITMAP
1B80
7FE0
BFE0
BFE0
79E0
7850
3840
3AD0
2F80
0600
ENDCHAR
STARTCHAR D
ENCODING 68
SWIDTH 522 0
DWIDTH 6 0
BBX 6 11 0 -2
BITMAP
5A80
7FE0
3FF0
3FF0
2DA0
2CA0
2C90
1ED0
1BC0
1240
0100
ENDCHAR
STARTCHAR E
ENCODING 69
SWIDTH 570 0
DWIDTH 7 0
BBX 6 10 0 -1
BITMAP
6AA0
3FF0
3FE0
2FD0
2D40
2F80
2E40
1E40
1B80
0140
ENDCHAR
STARTCHAR F
ENCODING 70
SWIDTH 559 0
DWIDTH 7 0
BBX 6 10 0 -1
BITMAP
6AA0
3FE0
2FE0
2FD0
1E50
1FC0
1E80
1E00
1E00
1500
ENDCHAR
STARTCHAR G
ENCODING 71
SWIDTH 499 0
DWIDTH 6 0
BBX 6 10 0 -1
BITMAP
1A40
7FD0
BFE0
7FE0
7AE0
7590
3BD0
39D0
2FD0
0640
ENDCHAR
STARTCHAR H
ENCODING 72
SWIDTH 726 0
DWIDTH 9 0
BBX 8 10 0 -1
BITMAP
5A2A
3E3F
3E3D
2E3D
2E3C
1FF8
1EB8
0E74
0E74
0460
ENDCHAR
STARTCHAR I
ENCODING 73
SWIDTH 401 0
DWIDTH 5 0
BBX 5 10 0 -1
BITMAP
BF40
3F00
2F00
2E00
2E00
2E00
1D00
1D00
0D00
0400
ENDCHAR
STARTCHAR J
ENCODING 74
SWIDTH 455 0
DWIDTH 5 0
BBX 5 10 0 -1
BITMAP
0A80
0B80
0B40
0B40
0B00
0B00
9A00
EE00
BD00
0400
ENDCHAR
STARTCHAR K
ENCODING 75
SWIDTH 580 0
DWIDTH 7 0
BBX 7 10 0 -1
BITMAP
69A4
3DE0
2EC0
1F80
1FC0
0FC0
0FC0
0DD0
0DD0
0040
ENDCHAR
STARTCHAR L
ENCODING 76
SWIDTH 416 0
DWIDTH 5 0
BBX 6 10 0 -1
BITMAP
6A00
7D00
3D00
3D00
2D00
2D00
2D00
2E90
1FC0
0580
ENDCHAR
STARTCHAR M
ENCODING 77
SWIDTH 740 0
DWIDTH 9 0
BBX 9 10 0 -1
BITMAP
6F7E40
3F7E00
3FFE00
2FFD00
2FFD00
1FFD00
1EED00
0EEC00
0D9800
040000
ENDCHAR
STARTCHAR N
ENCODING 78
SWIDTH 610 0
DWIDTH 7 0
BBX 7 10 0 -1
BITMAP
69A4
3EB4
3FB0
2FF0
2FF0
2FE0
1EE0
1DE0
1DD0
0990
ENDCHAR
STARTCHAR O
ENCODING 79
SWIDTH 504 0
DWIDTH 6 0
BBX 6 10 0 -1
BITMAP
1A40
7FD0
BFE0
BFE0
7AE0
75E0
39D0
3AD0
2F80
0640
ENDCHAR
STARTCHAR P
ENCODING 80
SWIDTH 545 0
DWIDTH 7 0
BBX 6 10 0 -1
BITMAP
6A90
3FF0
2FF0
2FF0
1E70
1EA0
0FD0
0E00
0E00
0500
ENDCHAR
STARTCHAR Q
ENCODING 81
SWIDTH 520 0
DWIDTH 6 0
BBX 6 10 0 -1
BITMAP
0A40
7FE0
BFF0
BFF0
BCF0
7CE0
3CE0
2EE0
0FE0
01A0
ENDCHAR
STARTCHAR R
ENCODING 82
SWIDTH 599 0
DWIDTH 7 0
BBX 7 10 0 -1
BITMAP
6BA0
3FF8
2FFC
1FFC
1E78
0FB8
0FF0
0EB0
0AB0
0520
ENDCHAR
STARTCHAR S
ENCODING 83
SWIDTH 504 0
DWIDTH 6 0
BBX 6 10 0 -1
BITMAP
1A80
3FE0
BFE0
BFE0
B9A0
7F40
1BD0
7AD0
3F80
0540
ENDCHAR
STARTCHAR T
ENCODING 84
SWIDTH 622 0
DWIDTH 7 0
BBX 7 10 0 -1
BITMAP
6AA4
3FF8
3FF8
2FF4
17D4
03C0
0380
0380
0380
0380
ENDCHAR
STARTCHAR U
ENCODING 85
SWIDTH 637 0
DWIDTH 8 0
BBX 7 10 0 -1
BITMAP
6D64
3DB8
3DB8
2DB4
2DB0
2DB0
2DF0
1EE0
0E90
0040
ENDCHAR
STARTCHAR V
ENCODING 86
SWIDTH 570 0
DWIDTH 7 0
BBX 7 10 0 -1
BITMAP
68A4
3CF0
2DE0
2DD0
2ED0
1EC0
1F80
1F80
0F40
0A00
ENDCHAR
STARTCHAR W
ENCODING 87
SWIDTH 777 0
DWIDTH 9 0
BBX 9 9 0 0
BITMAP
199640
7DEB40
1EFE00
0FFD00
0BFC00
07FC00
03B800
03B400
017000
ENDCHAR
STARTCHAR X
ENCODING 88
SWIDTH 587 0
DWIDTH 7 0
BBX 7 10 0 -1
BITMAP
69A4
2EF4
0FD0
0BC0
0B80
0780
0780
0B80
0AC0
0440
ENDCHAR
STARTCHAR Y
ENCODING 89
SWIDTH 688 0
DWIDTH 8 0
BBX 8 10 0 -1
BITMAP
6929
1F7E
07F8
03F0
01F0
00F0
00E0
00A0
00A0
0040
ENDCHAR
STARTCHAR Z
ENCODING 90
SWIDTH 695 0
DWIDTH 8 0
BBX 8 10 0 -1
BITMAP
6FE9
7FFE
2FFD
2FF8
15E0
03C0
0740
0B90
0FD0
0040
ENDCHAR
STARTCHAR bracketleft
ENCODING 91
SWIDTH 410 0
DWIDTH 5 0
BBX 5 12 0 -1
BITMAP
1500
3F40
3F80
7800
7800
7800
7800
7800
7800
3940
3F40
0100
ENDCHAR
STARTCHAR backslash
ENCODING 92
SWIDTH 292 0
DWIDTH 4 0
BBX 4 11 0 -1
BITMAP
40
90
A0
60
30
24
18
0C
08
09
05
ENDCHAR
STARTCHAR bracketright
ENCODING 93
SWIDTH 407 0
DWIDTH 5 0
BBX 5 12 0 -1
BITMAP
1500
BF00
BF00
0B00
0B00
0B00
0B00
0B40
0B00
5B00
BF00
0100
ENDCHAR
STARTCHAR asciicircum
ENCODING 94
SWIDTH 523 0
DWIDTH 6 0
BBX 6 5 0 8
BITMAP
0A40
2F80
3AD0
74E0
1040
ENDCHAR
STARTCHAR underscore
ENCODING 95
SWIDTH 452 0
DWIDTH 5 0
BBX 5 3 0 -1
BITMAP
6540
7F80
1540
ENDCHAR
STARTCHAR grave
ENCODING 96
SWIDTH 444 0
DWIDTH 5 0
BBX 4 3 1 9
BITMAP
60
F8
19
ENDCHAR
STARTCHAR a
ENCODING 97
SWIDTH 479 0
DWIDTH 6 0
BBX 6 10 0 -1
BITMAP
6FD0
3FC0
2FC0
2F80
2F80
2E80
2AC0
2F80
2A80
2540
ENDCHAR
STARTCHAR b
ENCODING 98
SWIDTH 610 0
DWIDTH 7 0
BBX 7 10 0 -1
BITMAP
6AA4
3FF8
2FFC
1FFC
1E78
0FB4
0FF0
0E74
0BB0
05A0
ENDCHAR
STARTCHAR c
ENCODING 99
SWIDTH 534 0
DWIDTH 6 0
BBX 6 10 0 -1
BITMAP
1B80
7FF0
BFF0
BFF0
7DF0
7C50
3C40
2DD0
1FC0
0540
ENDCHAR
STARTCHAR d
ENCODING 100
SWIDTH 573 0
DWIDTH 7 0
BBX 7 10 0 -1
BITMAP
6A90
7FF4
3FF8
2FF8
1EB8
1E74
0E70
0E60
0FE0
0AD0
ENDCHAR
STARTCHAR e
ENCODING 101
SWIDTH 632 0
DWIDTH 8 0
BBX 7 10 0 -1
BITMAP
6AA8
7FF8
2FF4
2FF4
2E50
1F90
1FD0
0E40
0FE0
0550
ENDCHAR
STARTCHAR f
ENCODING 102
SWIDTH 559 0
DWIDTH 7 0
BBX 6 10 0 -1
BITMAP
6AA0
3FE0
2FE0
2FD0
1E50
1FC0
1E80
1E00
1E00
1500
ENDCHAR
STARTCHAR g
ENCODING 103
SWIDTH 546 0
DWIDTH 7 0
BBX 7 10 0 -1
BITMAP
1A80
7FF0
BFF4
BFF4
79F0
78A0
3AE0
2DF0
2FE0
0A90
ENDCHAR
STARTCHAR h
ENCODING 104
SWIDTH 730 0
DWIDTH 9 0
BBX 9 10 0 -1
BITMAP
6A3E40
3E2F00
2E3D00
2E3D00
1E3C00
1FF800
0EB800
0E7400
0E7400
041400
ENDCHAR
STARTCHAR i
ENCODING 105
SWIDTH 412 0
DWIDTH 5 0
BBX 5 9 0 0
BITMAP
6E40
3F00
2F00
2E00
2E00
1E00
1D00
1D00
0D00
ENDCHAR
STARTCHAR j
ENCODING 106
SWIDTH 458 0
DWIDTH 6 0
BBX 5 10 0 -1
BITMAP
1E80
0F80
0B40
0B40
0B40
0B40
9B40
EB00
BE00
0400
ENDCHAR
STARTCHAR k
ENCODING 107
SWIDTH 636 0
DWIDTH 8 0
BBX 7 10 0 -1
BITMAP
6A78
3EB4
2ED0
1ED0
0FC0
0F80
0BC0
0AA0
0A70
0010
ENDCHAR
STARTCHAR l
ENCODING 108
SWIDTH 438 0
DWIDTH 5 0
BBX 6 10 0 -1
BITMAP
6B40
3E00
2E00
2E00
1E00
1E00
1D00
0F90
0FD0
0480
ENDCHAR
STARTCHAR m
ENCODING 109
SWIDTH 770 0
DWIDTH 9 0
BBX 9 10 0 -1
BITMAP
1A2E40
7F7F00
3FBE00
2FFD00
2FFD00
2FFC00
1EEC00
1EB800
197400
040000
ENDCHAR
STARTCHAR n
ENCODING 110
SWIDTH 664 0
DWIDTH 8 0
BBX 8 10 0 -1
BITMAP
6E69
3F7C
3FB8
3FF8
2FF8
2FF4
1EF4
1DF0
1DE0
0490
ENDCHAR
STARTCHAR o
ENCODING 111
SWIDTH 545 0
DWIDTH 7 0
BBX 7 10 0 -1
BITMAP
1A80
7FF0
BFF4
BFF4
79F4
79F0
39E0
3ED0
2FD0
0140
ENDCHAR
STARTCHAR p
ENCODING 112
SWIDTH 557 0
DWIDTH 7 0
BBX 7 10 0 -1
BITMAP
6A90
3FF4
2FF4
2FF4
2EB0
1EB0
1FE0
0E00
0E00
0500
ENDCHAR
STARTCHAR q
ENCODING 113
SWIDTH 562 0
DWIDTH 7 0
BBX 7 10 0 -1
BITMAP
1B90
7FF0
BFF4
BEF4
7CB4
7CB4
3DB4
2EF0
0BF4
0174
ENDCHAR
STARTCHAR r
ENCODING 114
SWIDTH 616 0
DWIDTH 7 0
BBX 7 10 0 -1
BITMAP
6AA0
3FFC
2FFC
1FFC
1E78
1FB8
0FF4
0EA0
0EB0
0960
ENDCHAR
STARTCHAR s
ENCODING 115
SWIDTH 481 0
DWIDTH 6 0
BBX 6 10 0 -1
BITMAP
1A40
7FD0
BFD0
BFD0
BAD0
7E40
1B80
2680
3F40
1900
ENDCHAR
STARTCHAR t
ENCODING 116
SWIDTH 683 0
DWIDTH 8 0
BBX 8 10 0 -1
BITMAP
6BF9
7FFD
2FFC
2FFC
16D4
02D0
02D0
01D0
01D0
01D0
ENDCHAR
STARTCHAR u
ENCODING 117
SWIDTH 708 0
DWIDTH 9 0
BBX 8 9 0 0
BITMAP
6A29
3E3F
2F3E
2F3D
1F3C
1F3C
0F78
0BB8
07B4
ENDCHAR
STARTCHAR v
ENCODING 118
SWIDTH 644 0
DWIDTH 8 0
BBX 8 10 0 -1
BITMAP
6969
2DB8
1EB4
1EB0
0EB0
0BE0
0BE0
07D0
02C0
0140
ENDCHAR
STARTCHAR w
ENCODING 119
SWIDTH 704 0
DWIDTH 8 0
BBX 8 9 0 0
BITMAP
6889
3DDE
1EED
1FFC
0BF8
0BF8
07B4
03B4
0274
ENDCHAR
STARTCHAR x
ENCODING 120
SWIDTH 599 0
DWIDTH 7 0
BBX 7 10 0 -1
BITMAP
6DA4
2EF4
0FD0
0BC0
0780
0780
0780
0B80
0AC0
0440
ENDCHAR
STARTCHAR y
ENCODING 121
SWIDTH 604 0
DWIDTH 7 0
BBX 7 10 0 -1
BITMAP
68A4
1DF4
0BD0
07C0
07C0
03C0
0280
0380
0380
0140
ENDCHAR
STARTCHAR z
ENCODING 122
SWIDTH 622 0
DWIDTH 7 0
BBX 7 10 0 -1
BITMAP
6FE8
7FF8
2FF4
1FF0
16D0
0380
0340
0790
0BD0
0450
ENDCHAR
STARTCHAR braceleft
ENCODING 123
SWIDTH 372 0
DWIDTH 4 0
BBX 5 12 0 -2
BITMAP
0740
1F00
3F00
7E00
7C00
B800
B800
7800
7C00
2E00
1F00
0100
ENDCHAR
STARTCHAR bar
ENCODING 124
SWIDTH 208 0
DWIDTH 3 0
BBX 2 11 0 -1
BITMAP
10
60
60
20
60
60
60
60
20
60
60
ENDCHAR
STARTCHAR braceright
ENCODING 125
SWIDTH 338 0
DWIDTH 4 0
BBX 4 12 0 -2
BITMAP
A4
BC
7D
7D
2D
1D
1D
1D
1C
28
B4
50
ENDCHAR
STARTCHAR asciitilde
ENCODING 126
SWIDTH 535 0
DWIDTH 6 0
BBX 6 4 0 6
BITMAP
0040
7AE0
3EE0
0400
ENDCHAR
STARTCHAR exclamdown
ENCODING 161
SWIDTH 347 0
DWIDTH 4 0
BBX 4 15 0 0
BITMAP
29
3E
7E
6E
00
18
2C
2C
2C
3C
7D
7D
7D
BE
14
ENDCHAR
STARTCHAR cent
ENCODING 162
SWIDTH 552 0
DWIDTH 7 0
BBX 6 18 0 -5
BITMAP
0100
0200
0200
0200
1B80
7FF0
BFF0
BFF0
7DF0
3C50
3C40
2DD0
1FC0
0640
0100
0200
0200
0100
ENDCHAR
STARTCHAR sterling
ENCODING 163
SWIDTH 589 0
DWIDTH 7 0
BBX 7 10 0 -1
BITMAP
1A80
7FF0
7FF8
7FF8
7DF4
7D60
6D00
2EA0
2FD0
0580
ENDCHAR
STARTCHAR yen
ENCODING 165
SWIDTH 692 0
DWIDTH 8 0
BBX 8 10 0 1
BITMAP
5410
7D7E
1FBC
07F0
17F9
16E5
2BFA
01E0
01E0
00E0
ENDCHAR
STARTCHAR brokenbar
ENCODING 166
SWIDTH 201 0
DWIDTH 2 0
BBX 2 11 0 -1
BITMAP
50
60
60
60
10
00
00
60
60
60
60
ENDCHAR
STARTCHAR section
ENCODING 167
SWIDTH 477 0
DWIDTH 6 0
BBX 6 11 0 -2
BITMAP
1B80
3FD0
3FC0
3EC0
2E40
7B80
B680
BB40
2F00
6700
3E00
ENDCHAR
STARTCHAR dieresis
ENCODING 168
SWIDTH 633 0
DWIDTH 8 0
BBX 7 4 0 9
BITMAP
1454
7CB8
7CB8
1454
ENDCHAR
STARTCHAR copyright
ENCODING 169
SWIDTH 783 0
DWIDTH 9 0
BBX 9 11 0 -1
BITMAP
004000
06A800
29E600
63F840
57F880
97B880
935480
636480
22F640
195A00
06A400
ENDCHAR
STARTCHAR guillemotleft
ENCODING 171
SWIDTH 759 0
DWIDTH 9 0
BBX 9 7 0 1
BITMAP
054500
0F5F40
2E3D00
7CB800
7C7C00
2E2D00
0B4F40
ENDCHAR
STARTCHAR uni00AD
ENCODING 173
SWIDTH 446 0
DWIDTH 5 0
BBX 5 2 0 3
BITMAP
7F80
1540
ENDCHAR
STARTCHAR registered
ENCODING 174
SWIDTH 780 0
DWIDTH 9 0
BBX 9 10 0 -1
BITMAP
0A5400
2EA200
67F940
93F880
9368C0
52F480
61E440
25D940
0E5A00
02A400
ENDCHAR
STARTCHAR macron
ENCODING 175
SWIDTH 446 0
DWIDTH 5 0
BBX 5 2 0 3
BITMAP
7F80
1540
ENDCHAR
STARTCHAR acute
ENCODING 180
SWIDTH 439 0
DWIDTH 5 0
BBX 5 3 0 9
BITMAP
0600
2F40
6400
ENDCHAR
STARTCHAR mu
ENCODING 181
SWIDTH 679 0
DWIDTH 8 0
BBX 8 9 0 0
BITMAP
6929
7E7E
3E3D
2E7C
2E78
2E78
1E78
0FB4
0AA0
ENDCHAR
STARTCHAR paragraph
ENCODING 182
SWIDTH 591 0
DWIDTH 7 0
BBX 7 10 0 -1
BITMAP
2AE8
BFF4
BF70
7F70
3F70
1A70
0220
0220
0220
0110
ENDCHAR
STARTCHAR periodcentered
ENCODING 183
SWIDTH 388 0
DWIDTH 5 0
BBX 4 5 0 2
BITMAP
15
7F
3F
3F
10
ENDCHAR
STARTCHAR cedilla
ENCODING 184
SWIDTH 270 0
DWIDTH 3 0
BBX 3 4 0 -4
BITMAP
30
64
18
68
ENDCHAR
STARTCHAR guillemotright
ENCODING 187
SWIDTH 767 0
DWIDTH 9 0
BBX 9 8 0 0
BITMAP
541000
7D3C00
1F1F00
0B8B80
0F4B80
2E1F40
7C3D00
001400
ENDCHAR
STARTCHAR Agrave
ENCODING 192
SWIDTH 494 0
DWIDTH 6 0
BBX 7 14 -1 -2
BITMAP
2400
7E00
0640
1AA4
0BF0
0BE0
0BE0
0BD0
0AD0
0AD0
0BD0
0AD0
0980
0040
ENDCHAR
STARTCHAR Aacute
ENCODING 193
SWIDTH 494 0
DWIDTH 6 0
BBX 7 14 0 -2
BITMAP
0020
01F8
0290
6A90
2FC0
2F80
2F80
2F40
2B40
2B40
2F40
2B40
2600
0100
ENDCHAR
STARTCHAR Acircumflex
ENCODING 194
SWIDTH 494 0
DWIDTH 6 0
BBX 6 16 0 -2
BITMAP
1500
2F40
3BC0
A1D0
4040
6A90
2FC0
2F80
2F80
2F40
2B40
2B40
2F40
2B40
2600
0100
ENDCHAR
STARTCHAR Atilde
ENCODING 195
SWIDTH 494 0
DWIDTH 6 0
BBX 6 15 0 -2
BITMAP
1180
BFE0
2980
0000
6A90
2FC0
2F80
2F80
2F40
2B40
2B40
2F40
2B40
2600
0100
ENDCHAR
STARTCHAR Adieresis
ENCODING 196
SWIDTH 494 0
DWIDTH 6 0
BBX 6 15 0 -2
BITMAP
5150
F6F0
F6F0
5050
6A90
2FC0
2F80
2F80
2F40
2B40
2B40
2F40
2B40
2600
0100
ENDCHAR
STARTCHAR Aring
ENCODING 197
SWIDTH 494 0
DWIDTH 6 0
BBX 6 15 0 -2
BITMAP
0A00
2580
1A40
0500
6A90
2FC0
2F80
2F80
2F40
2B40
2B40
2F40
2B40
2600
0100
ENDCHAR
STARTCHAR AE
ENCODING 198
SWIDTH 733 0
DWIDTH 9 0
BBX 8 11 0 -2
BITMAP
6AAA
2FFF
2FFE
2FFD
2FC4
2BF8
2BE4
2FE4
2BB8
2654
0140
ENDCHAR
STARTCHAR Ccedilla
ENCODING 199
SWIDTH 504 0
DWIDTH 6 0
BBX 6 14 0 -5
BITMAP
1B80
7FE0
BFE0
BFE0
79E0
7850
3840
3AD0
2F80
0600
0180
0290
00A0
01D0
ENDCHAR
STARTCHAR Egrave
ENCODING 200
SWIDTH 570 0
DWIDTH 7 0
BBX 6 13 0 -1
BITMAP
2000
BD00
1600
6AA0
3FF0
3FE0
2FD0
2D40
2F80
2E40
1E40
1B80
0140
ENDCHAR
STARTCHAR Eacute
ENCODING 201
SWIDTH 570 0
DWIDTH 7 0
BBX 8 13 0 -1
BITMAP
0018
00BD
0190
6AA0
3FF0
3FE0
2FD0
2D40
2F80
2E40
1E40
1B80
0140
ENDCHAR
STARTCHAR Ecircumflex
ENCODING 202
SWIDTH 570 0
DWIDTH 7 0
BBX 6 15 0 -1
BITMAP
0540
1FC0
2ED0
34B0
1010
6AA0
3FF0
3FE0
2FD0
2D40
2F80
2E40
1E40
1B80
0140
ENDCHAR
STARTCHAR Edieresis
ENCODING 203
SWIDTH 570 0
DWIDTH 7 0
BBX 7 14 0 -1
BITMAP
1464
7CF4
7CF4
1450
6AA0
3FF0
3FE0
2FD0
2D40
2F80
2E40
1E40
1B80
0140
ENDCHAR
STARTCHAR Igrave
ENCODING 204
SWIDTH 401 0
DWIDTH 5 0
BBX 6 14 -1 -1
BITMAP
6000
BD00
1A00
0000
2FD0
0FC0
0BC0
0B80
0B80
0B80
0740
0740
0340
0100
ENDCHAR
STARTCHAR Iacute
ENCODING 205
SWIDTH 401 0
DWIDTH 5 0
BBX 7 14 0 -1
BITMAP
00A0
02F4
0640
0000
BF40
3F00
2F00
2E00
2E00
2E00
1D00
1D00
0D00
0400
ENDCHAR
STARTCHAR Icircumflex
ENCODING 206
SWIDTH 401 0
DWIDTH 5 0
BBX 5 15 0 -1
BITMAP
1500
7E00
BB40
D280
4040
BF40
3F00
2F00
2E00
2E00
2E00
1D00
1D00
0D00
0400
ENDCHAR
STARTCHAR Idieresis
ENCODING 207
SWIDTH 401 0
DWIDTH 5 0
BBX 7 14 -1 -1
BITMAP
1460
B8F4
B8F4
1450
2FD0
0FC0
0BC0
0B80
0B80
0B80
0740
0740
0340
0100
ENDCHAR
STARTCHAR Eth
ENCODING 208
SWIDTH 530 0
DWIDTH 6 0
BBX 7 10 0 -1
BITMAP
1AD0
3FF4
2FF8
1FF8
1E74
6F70
0E70
0EA0
0AD0
0540
ENDCHAR
STARTCHAR Ntilde
ENCODING 209
SWIDTH 610 0
DWIDTH 7 0
BBX 7 14 0 -1
BITMAP
1090
3FF0
1E60
0000
69A4
3EB4
3FB0
2FF0
2FF0
2FE0
1EE0
1DE0
1DD0
0990
ENDCHAR
STARTCHAR Ograve
ENCODING 210
SWIDTH 504 0
DWIDTH 6 0
BBX 7 13 -1 -1
BITMAP
2400
7E00
0640
0690
1FF4
2FF8
2FF8
1EB8
1D78
0E74
0EB4
0BE0
0190
ENDCHAR
STARTCHAR Oacute
ENCODING 211
SWIDTH 504 0
DWIDTH 6 0
BBX 7 13 0 -1
BITMAP
0020
01F8
0250
1A40
7FD0
BFE0
BFE0
7AE0
75E0
39D0
3AD0
2F80
0640
ENDCHAR
STARTCHAR Ocircumflex
ENCODING 212
SWIDTH 504 0
DWIDTH 6 0
BBX 6 15 0 -1
BITMAP
1500
2F40
3BC0
A1D0
4040
1A40
7FD0
BFE0
BFE0
7AE0
75E0
39D0
3AD0
2F80
0640
ENDCHAR
STARTCHAR Otilde
ENCODING 213
SWIDTH 504 0
DWIDTH 6 0
BBX 6 14 0 -1
BITMAP
5140
FFD0
6980
0000
1A40
7FD0
BFE0
BFE0
7AE0
75E0
39D0
3AD0
2F80
0640
ENDCHAR
STARTCHAR Odieresis
ENCODING 214
SWIDTH 504 0
DWIDTH 6 0
BBX 6 14 0 -1
BITMAP
5150
F6F0
F6F0
5050
1A40
7FD0
BFE0
BFE0
7AE0
75E0
39D0
3AD0
2F80
0640
ENDCHAR
STARTCHAR multiply
ENCODING 215
SWIDTH 359 0
DWIDTH 4 0
BBX 4 5 0 2
BITMAP
15
BF
3E
BF
25
ENDCHAR
STARTCHAR Oslash
ENCODING 216
SWIDTH 658 0
DWIDTH 8 0
BBX 8 10 0 -1
BITMAP
0A90
3FF5
7FF8
7FF4
3DF4
3EF4
2CF0
2DE0
5FD0
0580
ENDCHAR
STARTCHAR Ugrave
ENCODING 217
SWIDTH 637 0
DWIDTH 8 0
BBX 7 14 0 -1
BITMAP
2400
7E00
0640
0000
6D64
3DB8
3DB8
2DB4
2DB0
2DB0
2DF0
1EE0
0E90
0040
ENDCHAR
STARTCHAR Uacute
ENCODING 218
SWIDTH 637 0
DWIDTH 8 0
BBX 8 14 0 -1
BITMAP
000C
007E
0094
0000
6D64
3DB8
3DB8
2DB4
2DB0
2DB0
2DF0
1EE0
0E90
0040
ENDCHAR
STARTCHAR Ucircumflex
ENCODING 219
SWIDTH 637 0
DWIDTH 8 0
BBX 7 15 0 -1
BITMAP
0540
0BD0
1EF0
2874
1010
6D64
3DB8
3DB8
2DB4
2DB0
2DB0
2DF0
1EE0
0E90
0040
ENDCHAR
STARTCHAR Udieresis
ENCODING 220
SWIDTH 637 0
DWIDTH 8 0
BBX 7 14 0 -1
BITMAP
1454
3DB8
3DBC
1454
6D64
3DB8
3DB8
2DB4
2DB0
2DB0
2DF0
1EE0
0E90
0040
ENDCHAR
STARTCHAR Yacute
ENCODING 221
SWIDTH 688 0
DWIDTH 8 0
BBX 8 14 0 -1
BITMAP
0009
002F
0064
0000
6929
1F7E
07F8
03F0
01F0
00F0
00E0
00A0
00A0
0040
ENDCHAR
STARTCHAR Thorn
ENCODING 222
SWIDTH 521 0
DWIDTH 6 0
BBX 6 12 0 -1
BITMAP
BD00
BD00
BF90
7FE0
7FF0
7FE0
3DA0
3DA0
2FD0
2D00
2D00
1500
ENDCHAR
STARTCHAR germandbls
ENCODING 223
SWIDTH 546 0
DWIDTH 7 0
BBX 7 10 0 -1
BITMAP
1A90
7FF0
7FF4
BFF0
7CE0
79D0
3AC0
39D0
3AD0
1680
ENDCHAR
STARTCHAR agrave
ENCODING 224
SWIDTH 479 0
DWIDTH 6 0
BBX 6 14 0 -1
BITMAP
6000
F800
1900
0000
6FD0
3FC0
2FC0
2F80
2F80
2E80
2AC0
2F80
2A80
2540
ENDCHAR
STARTCHAR aacute
ENCODING 225
SWIDTH 479 0
DWIDTH 6 0
BBX 7 14 0 -1
BITMAP
0024
00B8
0290
0000
6FD0
3FC0
2FC0
2F80
2F80
2E80
2AC0
2F80
2A80
2540
ENDCHAR
STARTCHAR acircumflex
ENCODING 226
SWIDTH 479 0
DWIDTH 6 0
BBX 6 15 0 -1
BITMAP
0500
2F80
3AC0
70E0
4040
6FD0
3FC0
2FC0
2F80
2F80
2E80
2AC0
2F80
2A80
2540
ENDCHAR
STARTCHAR atilde
ENCODING 227
SWIDTH 479 0
DWIDTH 6 0
BBX 6 14 0 -1
BITMAP
1140
BFD0
2980
0000
6FD0
3FC0
2FC0
2F80
2F80
2E80
2AC0
2F80
2A80
2540
ENDCHAR
STARTCHAR adieresis
ENCODING 228
SWIDTH 479 0
DWIDTH 6 0
BBX 6 14 0 -1
BITMAP
5450
B9F0
B9F0
5450
6FD0
3FC0
2FC0
2F80
2F80
2E80
2AC0
2F80
2A80
2540
ENDCHAR
STARTCHAR aring
ENCODING 229
SWIDTH 479 0
DWIDTH 6 0
BBX 6 14 0 -1
BITMAP
0A40
1980
1A40
0500
6FD0
3FC0
2FC0
2F80
2F80
2E80
2AC0
2F80
2A80
2540
ENDCHAR
STARTCHAR ae
ENCODING 230
SWIDTH 755 0
DWIDTH 9 0
BBX 9 10 0 -1
BITMAP
6FFA40
2FFF00
2FFE00
2FFE00
2FD500
2EE800
2AF800
2FD400
2EFC00
255400
ENDCHAR
STARTCHAR ccedilla
ENCODING 231
SWIDTH 534 0
DWIDTH 6 0
BBX 6 14 0 -5
BITMAP
1B80
7FF0
BFF0
BFF0
7DF0
7C50
3C40
2DD0
1FC0
0540
0240
0340
0190
02D0
ENDCHAR
STARTCHAR egrave
ENCODING 232
SWIDTH 632 0
DWIDTH 8 0
BBX 7 14 0 -1
BITMAP
2400
7D00
0600
0000
6AA8
7FF8
2FF4
2FF4
2E50
1F90
1FD0
0E40
0FE0
0550
ENDCHAR
STARTCHAR eacute
ENCODING 233
SWIDTH 632 0
DWIDTH 8 0
BBX 8 14 0 -1
BITMAP
001C
007D
0090
0000
6AA8
7FF8
2FF4
2FF4
2E50
1F90
1FD0
0E40
0FE0
0550
ENDCHAR
STARTCHAR ecircumflex
ENCODING 234
SWIDTH 632 0
DWIDTH 8 0
BBX 7 15 0 -1
BITMAP
0540
0FD0
1EE0
2874
1010
6AA8
7FF8
2FF4
2FF4
2E50
1F90
1FD0
0E40
0FE0
0550
ENDCHAR
STARTCHAR edieresis
ENCODING 235
SWIDTH 632 0
DWIDTH 8 0
BBX 7 14 0 -1
BITMAP
1454
3DB8
3DB8
1454
6AA8
7FF8
2FF4
2FF4
2E50
1F90
1FD0
0E40
0FE0
0550
ENDCHAR
STARTCHAR igrave
ENCODING 236
SWIDTH 411 0
DWIDTH 5 0
BBX 6 13 -1 0
BITMAP
2000
BD00
1600
0000
1B90
0FC0
0BC0
0B80
0B80
0780
0740
0740
0340
ENDCHAR
STARTCHAR iacute
ENCODING 237
SWIDTH 411 0
DWIDTH 5 0
BBX 7 13 0 0
BITMAP
0060
02F4
0640
0000
6E40
3F00
2F00
2E00
2E00
1E00
1D00
1D00
0D00
ENDCHAR
STARTCHAR icircumflex
ENCODING 238
SWIDTH 411 0
DWIDTH 5 0
BBX 6 14 0 0
BITMAP
1500
3F40
7B80
A1D0
4040
6E40
3F00
2F00
2E00
2E00
1E00
1D00
1D00
0D00
ENDCHAR
STARTCHAR idieresis
ENCODING 239
SWIDTH 411 0
DWIDTH 5 0
BBX 7 13 -1 0
BITMAP
1460
7CF4
7CF4
1450
1B90
0FC0
0BC0
0B80
0B80
0780
0740
0740
0340
ENDCHAR
STARTCHAR eth
ENCODING 240
SWIDTH 530 0
DWIDTH 6 0
BBX 7 10 0 -1
BITMAP
1AD0
3FF4
2FF8
1FF8
1E74
6F70
0E70
0EA0
0AD0
0540
ENDCHAR
STARTCHAR ntilde
ENCODING 241
SWIDTH 664 0
DWIDTH 8 0
BBX 8 14 0 -1
BITMAP
0450
2FF4
0A60
0000
6E69
3F7C
3FB8
3FF8
2FF8
2FF4
1EF4
1DF0
1DE0
0490
ENDCHAR
STARTCHAR ograve
ENCODING 242
SWIDTH 545 0
DWIDTH 7 0
BBX 7 14 0 -1
BITMAP
6000
F800
1900
0000
1A80
7FF0
BFF4
BFF4
79F4
79F0
39E0
3ED0
2FD0
0140
ENDCHAR
STARTCHAR oacute
ENCODING 243
SWIDTH 545 0
DWIDTH 7 0
BBX 7 14 0 -1
BITMAP
0024
00BC
0190
0000
1A80
7FF0
BFF4
BFF4
79F4
79F0
39E0
3ED0
2FD0
0140
ENDCHAR
STARTCHAR ocircumflex
ENCODING 244
SWIDTH 545 0
DWIDTH 7 0
BBX 7 15 0 -1
BITMAP
0500
1F80
3ED0
70E0
1010
1A80
7FF0
BFF4
BFF4
79F4
79F0
39E0
3ED0
2FD0
0140
ENDCHAR
STARTCHAR otilde
ENCODING 245
SWIDTH 545 0
DWIDTH 7 0
BBX 7 14 0 -1
BITMAP
1180
BFE0
2990
0000
1A80
7FF0
BFF4
BFF4
79F4
79F0
39E0
3ED0
2FD0
0140
ENDCHAR
STARTCHAR odieresis
ENCODING 246
SWIDTH 545 0
DWIDTH 7 0
BBX 7 14 0 -1
BITMAP
5450
B9F0
B9F4
5450
1A80
7FF0
BFF4
BFF4
79F4
79F0
39E0
3ED0
2FD0
0140
ENDCHAR
STARTCHAR oslash
ENCODING 248
SWIDTH 676 0
DWIDTH 8 0
BBX 8 10 0 -1
BITMAP
1A81
3FF4
7FF4
7FF4
7DF4
3EF0
39E0
2ED0
5FD0
0140
ENDCHAR
STARTCHAR ugrave
ENCODING 249
SWIDTH 708 0
DWIDTH 9 0
BBX 8 13 0 0
BITMAP
1800
2F40
0680
0000
6A29
3E3F
2F3E
2F3D
1F3C
1F3C
0F78
0BB8
07B4
ENDCHAR
STARTCHAR uacute
ENCODING 250
SWIDTH 708 0
DWIDTH 9 0
BBX 8 13 0 0
BITMAP
0009
002F
0064
0000
6A29
3E3F
2F3E
2F3D
1F3C
1F3C
0F78
0BB8
07B4
ENDCHAR
STARTCHAR ucircumflex
ENCODING 251
SWIDTH 708 0
DWIDTH 9 0
BBX 8 14 0 0
BITMAP
0150
07E0
0BB4
1D28
0404
6A29
3E3F
2F3E
2F3D
1F3C
1F3C
0F78
0BB8
07B4
ENDCHAR
STARTCHAR udieresis
ENCODING 252
SWIDTH 708 0
DWIDTH 9 0
BBX 8 13 0 0
BITMAP
1518
2E7D
2E7D
1514
6A29
3E3F
2F3E
2F3D
1F3C
1F3C
0F78
0BB8
07B4
ENDCHAR
STARTCHAR yacute
ENCODING 253
SWIDTH 604 0
DWIDTH 7 0
BBX 8 14 0 -1
BITMAP
0018
007D
0090
0000
68A4
1DF4
0BD0
07C0
07C0
03C0
0280
0380
0380
0140
ENDCHAR
STARTCHAR thorn
ENCODING 254
SWIDTH 498 0
DWIDTH 6 0
BBX 6 12 0 -1
BITMAP
BD00
BC00
BE80
7FE0
7FE0
7FE0
3CD0
3DD0
2FC0
2D00
2D00
1500
ENDCHAR
STARTCHAR ydieresis
ENCODING 255
SWIDTH 604 0
DWIDTH 7 0
BBX 7 14 0 -1
BITMAP
1454
3DBC
3DBC
1414
68A4
1DF4
0BD0
07C0
07C0
03C0
0280
0380
0380
0140
ENDCHAR
STARTCHAR Amacron
ENCODING 256
SWIDTH 494 0
DWIDTH 6 0
BBX 6 13 0 -2
BITMAP
3FC0
1540
6A90
2FC0
2F80
2F80
2F40
2B40
2B40
2F40
2B40
2600
0100
ENDCHAR
STARTCHAR amacron
ENCODING 257
SWIDTH 479 0
DWIDTH 6 0
BBX 6 12 0 -1
BITMAP
3FC0
1540
6FD0
3FC0
2FC0
2F80
2F80
2E80
2AC0
2F80
2A80
2540
ENDCHAR
STARTCHAR Abreve
ENCODING 258
SWIDTH 494 0
DWIDTH 6 0
BBX 6 16 0 -2
BITMAP
1440
2CE0
1FD0
0180
0000
6A90
2FC0
2F80
2F80
2F40
2B40
2B40
2F40
2B40
2600
0100
ENDCHAR
STARTCHAR abreve
ENCODING 259
SWIDTH 479 0
DWIDTH 6 0
BBX 6 15 0 -1
BITMAP
1440
2CE0
1FD0
0180
0000
6FD0
3FC0
2FC0
2F80
2F80
2E80
2AC0
2F80
2A80
2540
ENDCHAR
STARTCHAR Aogonek
ENCODING 260
SWIDTH 494 0
DWIDTH 6 0
BBX 6 14 0 -5
BITMAP
6A90
2FC0
2F80
2F80
2F40
2B40
2B40
2F40
2B40
2700
0700
0700
0790
02E0
ENDCHAR
STARTCHAR aogonek
ENCODING 261
SWIDTH 479 0
DWIDTH 6 0
BBX 7 14 0 -5
BITMAP
6FD0
3FC0
2FC0
2F80
2F80
2E80
2AC0
2F80
2A80
2680
0240
0290
01F4
0010
ENDCHAR
STARTCHAR Cacute
ENCODING 262
SWIDTH 504 0
DWIDTH 6 0
BBX 7 13 0 -1
BITMAP
0060
02F4
0640
1B80
7FE0
BFE0
BFE0
79E0
7850
3840
3AD0
2F80
0600
ENDCHAR
STARTCHAR cacute
ENCODING 263
SWIDTH 534 0
DWIDTH 6 0
BBX 7 14 0 -1
BITMAP
0060
01F4
0240
0000
1B80
7FF0
BFF0
BFF0
7DF0
7C50
3C40
2DD0
1FC0
0540
ENDCHAR
STARTCHAR Ccircumflex
ENCODING 264
SWIDTH 504 0
DWIDTH 6 0
BBX 6 15 0 -1
BITMAP
0540
1F80
2ED0
74A0
1010
1B80
7FE0
BFE0
BFE0
79E0
7850
3840
3AD0
2F80
0600
ENDCHAR
STARTCHAR ccircumflex
ENCODING 265
SWIDTH 534 0
DWIDTH 6 0
BBX 6 15 0 -1
BITMAP
0540
0FC0
1EE0
3470
1010
1B80
7FF0
BFF0
BFF0
7DF0
7C50
3C40
2DD0
1FC0
0540
ENDCHAR
STARTCHAR Cdotaccent
ENCODING 266
SWIDTH 504 0
DWIDTH 6 0
BBX 6 15 0 -1
BITMAP
0540
1F80
1F80
1F80
0400
1B80
7FE0
BFE0
BFE0
79E0
7850
3840
3AD0
2F80
0600
ENDCHAR
STARTCHAR cdotaccent
ENCODING 267
SWIDTH 534 0
DWIDTH 6 0
BBX 6 15 0 -1
BITMAP
0540
0FC0
0FC0
0FC0
0400
1B80
7FF0
BFF0
BFF0
7DF0
7C50
3C40
2DD0
1FC0
0540
ENDCHAR
STARTCHAR Ccaron
ENCODING 268
SWIDTH 504 0
DWIDTH 6 0
BBX 6 15 0 -1
BITMAP
6050
75E0
3EC0
1F80
0500
1B80
7FE0
BFE0
BFE0
79E0
7850
3840
3AD0
2F80
0600
ENDCHAR
STARTCHAR ccaron
ENCODING 269
SWIDTH 534 0
DWIDTH 6 0
BBX 6 15 0 -1
BITMAP
2010
38B0
1EE0
0FC0
0540
1B80
7FF0
BFF0
BFF0
7DF0
7C50
3C40
2DD0
1FC0
0540
ENDCHAR
STARTCHAR Dcaron
ENCODING 270
SWIDTH 522 0
DWIDTH 6 0
BBX 7 16 0 -2
BITMAP
1420
2CB4
1EE0
0FD0
0540
5A80
7FE0
3FF0
3FF0
2DA0
2CA0
2C90
1ED0
1BC0
1240
0100
ENDCHAR
STARTCHAR dcaron
ENCODING 271
SWIDTH 522 0
DWIDTH 6 0
BBX 7 16 0 -2
BITMAP
1420
2CB4
1EE0
0FD0
0540
5A80
7FE0
3FF0
3FF0
2DA0
2CA0
2C90
1ED0
1BC0
1240
0100
ENDCHAR
STARTCHAR Eth.dup2
ENCODING 272
SWIDTH 530 0
DWIDTH 6 0
BBX 7 10 0 -1
BITMAP
1AD0
3FF4
2FF8
1FF8
1E74
6F70
0E70
0EA0
0AD0
0540
ENDCHAR
STARTCHAR Emacron
ENCODING 274
SWIDTH 570 0
DWIDTH 7 0
BBX 6 12 0 -1
BITMAP
2FD0
1550
6AA0
3FF0
3FE0
2FD0
2D40
2F80
2E40
1E40
1B80
0140
ENDCHAR
STARTCHAR emacron
ENCODING 275
SWIDTH 632 0
DWIDTH 8 0
BBX 7 12 0 -1
BITMAP
1FE0
0550
6AA8
7FF8
2FF4
2FF4
2E50
1F90
1FD0
0E40
0FE0
0550
ENDCHAR
STARTCHAR Ebreve
ENCODING 276
SWIDTH 570 0
DWIDTH 7 0
BBX 6 15 0 -1
BITMAP
1810
0D70
0BE0
0050
0000
6AA0
3FF0
3FE0
2FD0
2D40
2F80
2E40
1E40
1B80
0140
ENDCHAR
STARTCHAR ebreve
ENCODING 277
SWIDTH 632 0
DWIDTH 8 0
BBX 7 15 0 -1
BITMAP
0510
0B38
07F4
0060
0000
6AA8
7FF8
2FF4
2FF4
2E50
1F90
1FD0
0E40
0FE0
0550
ENDCHAR
STARTCHAR Edotaccent
ENCODING 278
SWIDTH 570 0
DWIDTH 7 0
BBX 6 15 0 -1
BITMAP
0540
1FC0
0FC0
0FC0
0400
6AA0
3FF0
3FE0
2FD0
2D40
2F80
2E40
1E40
1B80
0140
ENDCHAR
STARTCHAR edotaccent
ENCODING 279
SWIDTH 632 0
DWIDTH 8 0
BBX 7 15 0 -1
BITMAP
0540
0FD0
0BD0
0BD0
0400
6AA8
7FF8
2FF4
2FF4
2E50
1F90
1FD0
0E40
0FE0
0550
ENDCHAR
STARTCHAR Eogonek
ENCODING 280
SWIDTH 513 0
DWIDTH 6 0
BBX 6 13 0 -4
BITMAP
6AA0
3FF0
3FE0
2FD0
2D40
2F80
2E40
1E40
1F80
0340
0340
03E0
01B0
ENDCHAR
STARTCHAR eogonek
ENCODING 281
SWIDTH 632 0
DWIDTH 8 0
BBX 7 13 0 -4
BITMAP
6AA8
7FF8
2FF4
2FF4
2E50
1F90
1FD0
0E40
0FD0
05C0
01C0
01E4
00B8
ENDCHAR
STARTCHAR Ecaron
ENCODING 282
SWIDTH 570 0
DWIDTH 7 0
BBX 7 15 0 -1
BITMAP
1420
2CB4
1EE0
0FD0
0540
6AA0
3FF0
3FE0
2FD0
2D40
2F80
2E40
1E40
1B80
0140
ENDCHAR
STARTCHAR ecaron
ENCODING 283
SWIDTH 632 0
DWIDTH 8 0
BBX 7 15 0 -1
BITMAP
0814
1E38
0BB4
07E0
0150
6AA8
7FF8
2FF4
2FF4
2E50
1F90
1FD0
0E40
0FE0
0550
ENDCHAR
STARTCHAR Gcircumflex
ENCODING 284
SWIDTH 499 0
DWIDTH 6 0
BBX 6 15 0 -1
BITMAP
0500
2F40
3BC0
A1D0
4040
1A40
7FD0
BFE0
7FE0
7AE0
7590
3BD0
39D0
2FD0
0640
ENDCHAR
STARTCHAR gcircumflex
ENCODING 285
SWIDTH 546 0
DWIDTH 7 0
BBX 7 15 0 -1
BITMAP
0500
1F80
3ED0
70A0
1010
1A80
7FF0
BFF4
BFF4
79F0
78A0
3AE0
2DF0
2FE0
0A90
ENDCHAR
STARTCHAR Gbreve
ENCODING 286
SWIDTH 499 0
DWIDTH 6 0
BBX 6 15 0 -1
BITMAP
2440
39D0
2FC0
0140
0000
1A40
7FD0
BFE0
7FE0
7AE0
7590
3BD0
39D0
2FD0
0640
ENDCHAR
STARTCHAR gbreve
ENCODING 287
SWIDTH 546 0
DWIDTH 7 0
BBX 7 15 0 -1
BITMAP
1440
28E0
1FD0
0180
0000
1A80
7FF0
BFF4
BFF4
79F0
78A0
3AE0
2DF0
2FE0
0A90
ENDCHAR
STARTCHAR Gdotaccent
ENCODING 288
SWIDTH 499 0
DWIDTH 6 0
BBX 6 15 0 -1
BITMAP
1500
2F40
2F40
1F40
0400
1A40
7FD0
BFE0
7FE0
7AE0
7590
3BD0
39D0
2FD0
0640
ENDCHAR
STARTCHAR gdotaccent
ENCODING 289
SWIDTH 546 0
DWIDTH 7 0
BBX 7 15 0 -1
BITMAP
0540
1F80
1F80
1F80
0400
1A80
7FF0
BFF4
BFF4
79F0
78A0
3AE0
2DF0
2FE0
0A90
ENDCHAR
STARTCHAR Gcommaaccent
ENCODING 290
SWIDTH 499 0
DWIDTH 6 0
BBX 6 16 0 -7
BITMAP
1A40
7FD0
BFE0
7FE0
7AE0
7590
3BD0
39D0
2FD0
0640
0000
0F80
0FC0
0B80
0180
0280
ENDCHAR
STARTCHAR Hcircumflex
ENCODING 292
SWIDTH 726 0
DWIDTH 9 0
BBX 8 15 0 -1
BITMAP
0150
07E0
0BB4
1D28
0404
5A2A
3E3F
3E3D
2E3D
2E3C
1FF8
1EB8
0E74
0E74
0460
ENDCHAR
STARTCHAR hcircumflex
ENCODING 293
SWIDTH 730 0
DWIDTH 9 0
BBX 9 15 0 -1
BITMAP
015000
07E000
0BB400
1D2800
040400
6A3E40
3E2F00
2E3D00
2E3D00
1E3C00
1FF800
0EB800
0E7400
0E7400
041400
ENDCHAR
STARTCHAR hbar
ENCODING 295
SWIDTH 704 0
DWIDTH 8 0
BBX 8 10 0 -1
BITMAP
6A7A
3E7E
2FFD
2FFC
1E78
1FF4
0EB8
0E74
0E74
0414
ENDCHAR
STARTCHAR Itilde
ENCODING 296
SWIDTH 401 0
DWIDTH 5 0
BBX 6 14 -1 -1
BITMAP
1180
7FE0
2990
0000
2FD0
0FC0
0BC0
0B80
0B80
0B80
0740
0740
0340
0100
ENDCHAR
STARTCHAR itilde
ENCODING 297
SWIDTH 411 0
DWIDTH 5 0
BBX 6 13 -1 0
BITMAP
1180
7FE0
2D90
0000
1B90
0FC0
0BC0
0B80
0B80
0780
0740
0740
0340
ENDCHAR
STARTCHAR Imacron
ENCODING 298
SWIDTH 401 0
DWIDTH 5 0
BBX 5 12 0 -1
BITMAP
BF40
6500
BF40
3F00
2F00
2E00
2E00
2E00
1D00
1D00
0D00
0400
ENDCHAR
STARTCHAR imacron
ENCODING 299
SWIDTH 411 0
DWIDTH 5 0
BBX 5 11 0 0
BITMAP
BF40
5500
6E40
3F00
2F00
2E00
2E00
1E00
1D00
1D00
0D00
ENDCHAR
STARTCHAR Ibreve
ENCODING 300
SWIDTH 401 0
DWIDTH 5 0
BBX 5 15 0 -1
BITMAP
5040
7680
3F40
0600
0000
BF40
3F00
2F00
2E00
2E00
2E00
1D00
1D00
0D00
0400
ENDCHAR
STARTCHAR ibreve
ENCODING 301
SWIDTH 411 0
DWIDTH 5 0
BBX 5 14 0 0
BITMAP
5040
7280
7F40
0600
0000
6E40
3F00
2F00
2E00
2E00
1E00
1D00
1D00
0D00
ENDCHAR
STARTCHAR Iogonek
ENCODING 302
SWIDTH 401 0
DWIDTH 5 0
BBX 5 14 0 -5
BITMAP
BF40
3F00
2F00
2E00
2E00
2E00
1D00
1D00
1D00
1C00
2800
2800
1F40
0640
ENDCHAR
STARTCHAR iogonek
ENCODING 303
SWIDTH 412 0
DWIDTH 5 0
BBX 5 14 0 -5
BITMAP
6E40
3F00
2F00
2E00
2E00
1E00
1D00
1D00
0D00
1C00
2800
2C00
1F40
0500
ENDCHAR
STARTCHAR Idotaccent
ENCODING 304
SWIDTH 401 0
DWIDTH 5 0
BBX 5 15 0 -1
BITMAP
1500
7E00
3F00
3F00
1000
BF40
3F00
2F00
2E00
2E00
2E00
1D00
1D00
0D00
0400
ENDCHAR
STARTCHAR dotlessi
ENCODING 305
SWIDTH 411 0
DWIDTH 5 0
BBX 5 9 0 0
BITMAP
6E40
3F00
2F00
2E00
2E00
1E00
1D00
1D00
0D00
ENDCHAR
STARTCHAR IJ
ENCODING 306
SWIDTH 908 0
DWIDTH 11 0
BBX 11 10 0 -1
BITMAP
BF42A4
3F01F0
2F01E0
2F01E0
2E01D0
2E01D0
1E29D0
1E2EC0
0E1F80
050100
ENDCHAR
STARTCHAR ij
ENCODING 307
SWIDTH 901 0
DWIDTH 11 0
BBX 10 10 0 -1
BITMAP
6E42A0
3F42F0
2F02E0
2F02E0
2E02E0
1E01E0
1E29D0
0E2ED0
0E1FC0
000140
ENDCHAR
STARTCHAR Jcircumflex
ENCODING 308
SWIDTH 455 0
DWIDTH 5 0
BBX 6 15 0 -1
BITMAP
0540
1FC0
2ED0
34B0
1010
0A80
0B80
0B40
0B40
0B00
0B00
9A00
EE00
BD00
0400
ENDCHAR
STARTCHAR jcircumflex
ENCODING 309
SWIDTH 458 0
DWIDTH 6 0
BBX 6 15 0 -1
BITMAP
0540
1FC0
2ED0
34B0
1010
1E40
0F80
0B40
0B40
0B40
0B40
9B40
EB00
BE00
0400
ENDCHAR
STARTCHAR Kcommaaccent
ENCODING 310
SWIDTH 580 0
DWIDTH 7 0
BBX 7 16 0 -7
BITMAP
69A4
3DE0
2EC0
1F80
1FC0
0FC0
0FC0
0DD0
0DD0
0040
0000
0BD0
0BD0
0BD0
00C0
01C0
ENDCHAR
STARTCHAR kcommaaccent
ENCODING 311
SWIDTH 636 0
DWIDTH 8 0
BBX 7 15 0 -6
BITMAP
6A78
3EB4
2ED0
1ED0
0FC0
0F80
0BC0
0AA0
0A70
0110
07E0
07E0
07E0
00A0
0090
ENDCHAR
STARTCHAR kgreenlandic
ENCODING 312
SWIDTH 636 0
DWIDTH 8 0
BBX 7 10 0 -1
BITMAP
6A78
3EB4
2ED0
1ED0
0FC0
0F80
0BC0
0AA0
0A70
0010
ENDCHAR
STARTCHAR Lacute
ENCODING 313
SWIDTH 416 0
DWIDTH 5 0
BBX 7 13 0 -1
BITMAP
0060
02F4
0640
6A00
7D00
3D00
3D00
2D00
2D00
2D00
2E90
1FC0
0580
ENDCHAR
STARTCHAR lacute
ENCODING 314
SWIDTH 438 0
DWIDTH 5 0
BBX 7 14 0 -1
BITMAP
0060
01F4
0240
0000
6B40
3E00
2E00
2E00
1E00
1E00
1D00
0F90
0FD0
0480
ENDCHAR
STARTCHAR Lcommaaccent
ENCODING 315
SWIDTH 416 0
DWIDTH 5 0
BBX 6 16 0 -7
BITMAP
6A00
7D00
3D00
3D00
2D00
2D00
2D00
2E90
1FC0
0580
0000
2F40
2F40
2F40
0300
0700
ENDCHAR
STARTCHAR lcommaaccent
ENCODING 316
SWIDTH 438 0
DWIDTH 5 0
BBX 6 16 0 -7
BITMAP
6B40
3E00
2E00
2E00
1E00
1E00
1D00
0F90
0FD0
0480
0000
1F40
1F40
1F40
0340
0300
ENDCHAR
STARTCHAR Lcaron
ENCODING 317
SWIDTH 714 0
DWIDTH 9 0
BBX 8 10 0 -1
BITMAP
6A3F
7D3F
3D3F
3D1B
2D07
2D06
2D00
2E90
1FC0
0580
ENDCHAR
STARTCHAR lcaron
ENCODING 318
SWIDTH 782 0
DWIDTH 9 0
BBX 9 10 0 -1
BITMAP
6B4FC0
3E0FC0
2E1FC0
2E06C0
1E0180
1E0140
1D0000
0F9000
0FD000
048000
ENDCHAR
STARTCHAR Ldotaccent
ENCODING 319
SWIDTH 567 0
DWIDTH 7 0
BBX 8 10 0 -1
BITMAP
6A00
7D00
3DBD
3DBD
2DBD
2D54
2D00
2E90
1FC0
0580
ENDCHAR
STARTCHAR ldot
ENCODING 320
SWIDTH 660 0
DWIDTH 8 0
BBX 9 10 0 -1
BITMAP
6B4000
3E0000
2E1500
2E3F40
1E2F40
1E2F40
1D1000
0F9000
0FD000
048000
ENDCHAR
STARTCHAR Lslash
ENCODING 321
SWIDTH 428 0
DWIDTH 5 0
BBX 6 10 0 -1
BITMAP
6A00
3D00
2D40
2FD0
BFD0
BE00
2D00
1E90
1FC0
0580
ENDCHAR
STARTCHAR lslash
ENCODING 322
SWIDTH 457 0
DWIDTH 5 0
BBX 6 10 0 -1
BITMAP
6B80
3E00
2E50
2FE0
7FE0
7E00
1E00
0F90
0FD0
0440
ENDCHAR
STARTCHAR Nacute
ENCODING 323
SWIDTH 610 0
DWIDTH 7 0
BBX 8 14 0 -1
BITMAP
001C
007D
0090
0000
69A4
3EB4
3FB0
2FF0
2FF0
2FE0
1EE0
1DE0
1DD0
0990
ENDCHAR
STARTCHAR nacute
ENCODING 324
SWIDTH 664 0
DWIDTH 8 0
BBX 8 14 0 -1
BITMAP
0009
003E
00A4
0000
6E69
3F7C
3FB8
3FF8
2FF8
2FF4
1EF4
1DF0
1DE0
0490
ENDCHAR
STARTCHAR Ncommaaccent
ENCODING 325
SWIDTH 610 0
DWIDTH 7 0
BBX 7 17 0 -8
BITMAP
69A4
3EB4
3FB0
2FF0
2FF0
2FE0
1EE0
1DE0
1DD0
0990
0000
0000
07E0
07E0
07E0
00A0
00D0
ENDCHAR
STARTCHAR ncommaaccent
ENCODING 326
SWIDTH 664 0
DWIDTH 8 0
BBX 8 16 0 -7
BITMAP
6E69
3F7C
3FB8
3FF8
2FF8
2FF4
1EF4
1DF0
1DE0
0490
0000
03F0
03F0
02F0
0070
00A0
ENDCHAR
STARTCHAR Ncaron
ENCODING 327
SWIDTH 610 0
DWIDTH 7 0
BBX 7 15 0 -1
BITMAP
1420
2C74
1EE0
0BD0
0540
69A4
3EB4
3FB0
2FF0
2FF0
2FE0
1EE0
1DE0
1DD0
0990
ENDCHAR
STARTCHAR ncaron
ENCODING 328
SWIDTH 664 0
DWIDTH 8 0
BBX 8 15 0 -1
BITMAP
0814
0E38
0BB4
07E0
0150
6E69
3F7C
3FB8
3FF8
2FF8
2FF4
1EF4
1DF0
1DE0
0490
ENDCHAR
STARTCHAR Omacron
ENCODING 332
SWIDTH 504 0
DWIDTH 6 0
BBX 6 12 0 -1
BITMAP
3F80
1540
1A40
7FD0
BFE0
BFE0
7AE0
75E0
39D0
3AD0
2F80
0640
ENDCHAR
STARTCHAR omacron
ENCODING 333
SWIDTH 545 0
DWIDTH 7 0
BBX 7 12 0 -1
BITMAP
3FC0
1940
1A80
7FF0
BFF4
BFF4
79F4
79F0
39E0
3ED0
2FD0
0140
ENDCHAR
STARTCHAR Obreve
ENCODING 334
SWIDTH 504 0
DWIDTH 6 0
BBX 6 15 0 -1
BITMAP
2440
29D0
1FC0
0140
0000
1A40
7FD0
BFE0
BFE0
7AE0
75E0
39D0
3AD0
2F80
0640
ENDCHAR
STARTCHAR obreve
ENCODING 335
SWIDTH 545 0
DWIDTH 7 0
BBX 7 15 0 -1
BITMAP
1440
28E0
1FD0
0140
0000
1A80
7FF0
BFF4
BFF4
79F4
79F0
39E0
3ED0
2FD0
0140
ENDCHAR
STARTCHAR Ohungarumlaut
ENCODING 336
SWIDTH 504 0
DWIDTH 6 0
BBX 6 15 0 -1
BITMAP
0040
2CE0
39D0
6240
4100
1A40
7FD0
BFE0
BFE0
7AE0
75E0
39D0
3AD0
2F80
0640
ENDCHAR
STARTCHAR ohungarumlaut
ENCODING 337
SWIDTH 545 0
DWIDTH 7 0
BBX 7 15 0 -1
BITMAP
0440
1DB4
28E0
7180
0100
1A80
7FF0
BFF4
BFF4
79F4
79F0
39E0
3ED0
2FD0
0140
ENDCHAR
STARTCHAR OE
ENCODING 338
SWIDTH 789 0
DWIDTH 9 0
BBX 9 11 0 -2
BITMAP
1AAA80
7FFF80
BFFF40
BFFF00
7AE100
75FD00
39F900
3AF900
2FFD00
065100
011000
ENDCHAR
STARTCHAR oe
ENCODING 339
SWIDTH 778 0
DWIDTH 9 0
BBX 9 10 0 -1
BITMAP
1AAA40
7FFF40
BFFF00
BFFF00
79F500
39F800
39FC00
2AE400
2FFD00
015400
ENDCHAR
STARTCHAR Racute
ENCODING 340
SWIDTH 599 0
DWIDTH 7 0
BBX 8 14 0 -1
BITMAP
0018
00BD
0090
0000
6BA0
3FF8
2FFC
1FFC
1E78
0FB8
0FF0
0EB0
0AB0
0520
ENDCHAR
STARTCHAR racute
ENCODING 341
SWIDTH 616 0
DWIDTH 7 0
BBX 8 14 0 -1
BITMAP
0018
007D
0090
0000
6AA0
3FFC
2FFC
1FFC
1E78
1FB8
0FF4
0EA0
0EB0
0960
ENDCHAR
STARTCHAR Rcommaaccent
ENCODING 342
SWIDTH 599 0
DWIDTH 7 0
BBX 7 16 0 -7
BITMAP
6BA0
3FF8
2FFC
1FFC
1E78
0FB8
0FF0
0EB0
0AB0
0520
0000
07D0
07D0
07D0
00D0
00C0
ENDCHAR
STARTCHAR rcommaaccent
ENCODING 343
SWIDTH 616 0
DWIDTH 7 0
BBX 7 16 0 -7
BITMAP
6AA0
3FFC
2FFC
1FFC
1E78
1FB8
0FF4
0EA0
0EB0
0960
0000
07E0
07E0
07E0
0090
00D0
ENDCHAR
STARTCHAR Rcaron
ENCODING 344
SWIDTH 599 0
DWIDTH 7 0
BBX 7 15 0 -1
BITMAP
1814
1D78
0FF0
07E0
0140
6BA0
3FF8
2FFC
1FFC
1E78
0FB8
0FF0
0EB0
0AB0
0520
ENDCHAR
STARTCHAR rcaron
ENCODING 345
SWIDTH 616 0
DWIDTH 7 0
BBX 7 15 0 -1
BITMAP
1410
1D78
0EF0
0BE0
0140
6AA0
3FFC
2FFC
1FFC
1E78
1FB8
0FF4
0EA0
0EB0
0960
ENDCHAR
STARTCHAR Sacute
ENCODING 346
SWIDTH 504 0
DWIDTH 6 0
BBX 7 14 0 -1
BITMAP
0030
01F8
0250
0000
1A80
3FE0
BFE0
BFE0
B9A0
7F40
1BD0
7AD0
3F80
0540
ENDCHAR
STARTCHAR sacute
ENCODING 347
SWIDTH 481 0
DWIDTH 6 0
BBX 7 14 0 -1
BITMAP
0070
01F8
0250
0000
1A40
7FD0
BFD0
BFD0
BAD0
7E40
1B80
2680
3F40
1900
ENDCHAR
STARTCHAR Scircumflex
ENCODING 348
SWIDTH 504 0
DWIDTH 6 0
BBX 6 15 0 -1
BITMAP
0540
1FC0
2ED0
34B0
1010
1A80
3FE0
BFE0
BFE0
B9A0
7F40
1BD0
7AD0
3F80
0540
ENDCHAR
STARTCHAR scircumflex
ENCODING 349
SWIDTH 481 0
DWIDTH 6 0
BBX 6 15 0 -1
BITMAP
0540
1F80
2ED0
70A0
1010
1A40
7FD0
BFD0
BFD0
BAD0
7E40
1B80
2680
3F40
1900
ENDCHAR
STARTCHAR Scedilla
ENCODING 350
SWIDTH 504 0
DWIDTH 6 0
BBX 6 13 0 -4
BITMAP
1A80
3FE0
BFE0
BFE0
B9A0
7F40
1BD0
7AD0
3F80
0740
0640
0180
0680
ENDCHAR
STARTCHAR scedilla
ENCODING 351
SWIDTH 481 0
DWIDTH 6 0
BBX 6 13 0 -4
BITMAP
1A40
7FD0
BFD0
BFD0
BAD0
7E40
1B80
2680
3F40
1E00
0900
0640
0B40
ENDCHAR
STARTCHAR Scaron
ENCODING 352
SWIDTH 503 0
DWIDTH 6 0
BBX 6 16 0 -1
BITMAP
70A0
39D0
2FC0
1F40
0000
0000
1A80
3FE0
BFE0
BFE0
B9A0
7F40
1BD0
7AD0
3F80
0540
ENDCHAR
STARTCHAR scaron
ENCODING 353
SWIDTH 479 0
DWIDTH 6 0
BBX 6 16 0 -1
BITMAP
6090
75D0
3F80
1F40
0100
0000
1A40
7FD0
BFD0
BFD0
BAD0
7E40
1B80
2680
3F40
1900
ENDCHAR
STARTCHAR Tcommaaccent
ENCODING 354
SWIDTH 622 0
DWIDTH 7 0
BBX 7 14 0 -5
BITMAP
6AA4
3FF8
3FF8
2FF4
17D4
03C0
0380
0380
0380
0380
0240
0280
0190
02D0
ENDCHAR
STARTCHAR tcommaaccent
ENCODING 355
SWIDTH 683 0
DWIDTH 8 0
BBX 8 14 0 -5
BITMAP
6BF9
7FFD
2FFC
2FFC
16D4
02D0
02D0
01D0
01D0
01D0
00C0
0190
0060
01A0
ENDCHAR
STARTCHAR Tcaron
ENCODING 356
SWIDTH 622 0
DWIDTH 7 0
BBX 7 15 0 -1
BITMAP
1420
2CB4
1EE0
0BD0
0540
6AA4
3FF8
3FF8
2FF4
17D4
03C0
0380
0380
0380
0380
ENDCHAR
STARTCHAR tcaron
ENCODING 357
SWIDTH 622 0
DWIDTH 7 0
BBX 7 15 0 -1
BITMAP
1410
1D78
0FF0
0BE0
0140
6AA4
3FF8
3FF8
2FF4
17D4
03C0
0380
0380
0380
0380
ENDCHAR
STARTCHAR Utilde
ENCODING 360
SWIDTH 637 0
DWIDTH 8 0
BBX 7 14 0 -1
BITMAP
1490
3FF4
1E60
0000
6D64
3DB8
3DB8
2DB4
2DB0
2DB0
2DF0
1EE0
0E90
0040
ENDCHAR
STARTCHAR utilde
ENCODING 361
SWIDTH 708 0
DWIDTH 9 0
BBX 8 13 0 0
BITMAP
0460
1FF8
0A64
0000
6A29
3E3F
2F3E
2F3D
1F3C
1F3C
0F78
0BB8
07B4
ENDCHAR
STARTCHAR Umacron
ENCODING 362
SWIDTH 637 0
DWIDTH 8 0
BBX 7 12 0 -1
BITMAP
1FE0
0550
6D64
3DB8
3DB8
2DB4
2DB0
2DB0
2DF0
1EE0
0E90
0040
ENDCHAR
STARTCHAR umacron
ENCODING 363
SWIDTH 708 0
DWIDTH 9 0
BBX 8 11 0 0
BITMAP
0BF4
0650
6A29
3E3F
2F3E
2F3D
1F3C
1F3C
0F78
0BB8
07B4
ENDCHAR
STARTCHAR Ubreve
ENCODING 364
SWIDTH 637 0
DWIDTH 8 0
BBX 7 15 0 -1
BITMAP
0910
0E74
0BF0
0050
0000
6D64
3DB8
3DB8
2DB4
2DB0
2DB0
2DF0
1EE0
0E90
0040
ENDCHAR
STARTCHAR ubreve
ENCODING 365
SWIDTH 708 0
DWIDTH 9 0
BBX 8 14 0 0
BITMAP
0504
076C
03F4
0060
0000
6A29
3E3F
2F3E
2F3D
1F3C
1F3C
0F78
0BB8
07B4
ENDCHAR
STARTCHAR Uring
ENCODING 366
SWIDTH 637 0
DWIDTH 8 0
BBX 7 14 0 -1
BITMAP
0680
09A0
0690
0140
6D64
3DB8
3DB8
2DB4
2DB0
2DB0
2DF0
1EE0
0E90
0040
ENDCHAR
STARTCHAR uring
ENCODING 367
SWIDTH 708 0
DWIDTH 9 0
BBX 8 13 0 0
BITMAP
01A0
0370
02A0
0040
6A29
3E3F
2F3E
2F3D
1F3C
1F3C
0F78
0BB8
07B4
ENDCHAR
STARTCHAR Uhungarumlaut
ENCODING 368
SWIDTH 637 0
DWIDTH 8 0
BBX 7 15 0 -1
BITMAP
0010
0B38
0E74
2890
1040
6D64
3DB8
3DB8
2DB4
2DB0
2DB0
2DF0
1EE0
0E90
0040
ENDCHAR
STARTCHAR uhungarumlaut
ENCODING 369
SWIDTH 708 0
DWIDTH 9 0
BBX 8 14 0 0
BITMAP
0100
076D
0B38
0C60
0440
6A29
3E3F
2F3E
2F3D
1F3C
1F3C
0F78
0BB8
07B4
ENDCHAR
STARTCHAR Uogonek
ENCODING 370
SWIDTH 637 0
DWIDTH 8 0
BBX 7 13 0 -4
BITMAP
6D64
3DB8
3DB8
2DB4
2DB0
2DB0
2DF0
1EE0
0ED0
01C0
0280
01D4
00B8
ENDCHAR
STARTCHAR uogonek
ENCODING 371
SWIDTH 662 0
DWIDTH 8 0
BBX 8 12 0 -3
BITMAP
6A29
3E3F
2F3E
2F3D
1F3C
1E3C
1F78
0FB8
07F4
0280
02D4
01F4
ENDCHAR
STARTCHAR Wcircumflex
ENCODING 372
SWIDTH 777 0
DWIDTH 9 0
BBX 9 14 0 0
BITMAP
015000
03F000
07B800
0D1C00
040400
199640
7DEB40
1EFE00
0FFD00
0BFC00
07FC00
03B800
03B400
017000
ENDCHAR
STARTCHAR wcircumflex
ENCODING 373
SWIDTH 704 0
DWIDTH 8 0
BBX 8 14 0 0
BITMAP
0150
07E0
0BB4
1D28
0404
6889
3DDE
1EED
1FFC
0BF8
0BF8
07B4
03B4
0274
ENDCHAR
STARTCHAR Ycircumflex
ENCODING 374
SWIDTH 688 0
DWIDTH 8 0
BBX 8 15 0 -1
BITMAP
0150
07E0
0BB4
1C28
0404
6929
1F7E
07F8
03F0
01F0
00F0
00E0
00A0
00A0
0040
ENDCHAR
STARTCHAR ycircumflex
ENCODING 375
SWIDTH 604 0
DWIDTH 7 0
BBX 7 15 0 -1
BITMAP
0540
0FC0
1EE0
3470
1010
68A4
1DF4
0BD0
07C0
07C0
03C0
0280
0380
0380
0140
ENDCHAR
STARTCHAR Ydieresis
ENCODING 376
SWIDTH 688 0
DWIDTH 8 0
BBX 8 14 0 -1
BITMAP
1518
2E7C
2E7D
1514
6929
1F7E
07F8
03F0
01F0
00F0
00E0
00A0
00A0
0040
ENDCHAR
STARTCHAR Zacute
ENCODING 377
SWIDTH 695 0
DWIDTH 8 0
BBX 9 14 0 -1
BITMAP
000600
002F40
006400
000000
6FE900
7FFE00
2FFD00
2FF800
15E000
03C000
074000
0B9000
0FD000
004000
ENDCHAR
STARTCHAR zacute
ENCODING 378
SWIDTH 622 0
DWIDTH 7 0
BBX 8 14 0 -1
BITMAP
001C
007E
0090
0000
6FE8
7FF8
2FF4
1FF0
16D0
0380
0340
0790
0BD0
0450
ENDCHAR
STARTCHAR Zdotaccent
ENCODING 379
SWIDTH 695 0
DWIDTH 8 0
BBX 8 15 0 -1
BITMAP
0150
07F0
03F0
03F0
0100
6FE9
7FFE
2FFD
2FF8
15E0
03C0
0740
0B90
0FD0
0040
ENDCHAR
STARTCHAR zdotaccent
ENCODING 380
SWIDTH 622 0
DWIDTH 7 0
BBX 7 15 0 -1
BITMAP
0540
0FD0
0BD0
0BD0
0000
6FE8
7FF8
2FF4
1FF0
16D0
0380
0340
0790
0BD0
0450
ENDCHAR
STARTCHAR Zcaron
ENCODING 381
SWIDTH 693 0
DWIDTH 8 0
BBX 8 16 0 -1
BITMAP
0D28
0B78
07F0
03E0
0000
0000
6FE9
7FFE
2FFD
2FF8
15E0
03C0
0740
0B90
0FD0
0040
ENDCHAR
STARTCHAR zcaron
ENCODING 382
SWIDTH 621 0
DWIDTH 7 0
BBX 7 16 0 -1
BITMAP
2874
1DB0
0FE0
0BC0
0000
0000
6FE8
7FF8
2FF4
1FF0
16D0
0380
0740
0790
0BD0
0450
ENDCHAR
STARTCHAR DZ
ENCODING 497
SWIDTH 194 0
DWIDTH 2 0
BBX 1 1 0 0
BITMAP
00
ENDCHAR
STARTCHAR Dz
ENCODING 498
SWIDTH 194 0
DWIDTH 2 0
BBX 1 1 0 0
BITMAP
00
ENDCHAR
STARTCHAR dotlessj
ENCODING 567
SWIDTH 458 0
DWIDTH 6 0
BBX 5 10 0 -1
BITMAP
1E40
0F80
0B40
0B40
0B40
0B40
9B40
EB00
BE00
0400
ENDCHAR
STARTCHAR circumflex
ENCODING 710
SWIDTH 528 0
DWIDTH 6 0
BBX 6 5 0 8
BITMAP
0540
1F80
2ED0
70A0
1010
ENDCHAR
STARTCHAR caron
ENCODING 711
SWIDTH 486 0
DWIDTH 6 0
BBX 6 5 0 8
BITMAP
5080
B5D0
3BC0
2F40
0500
ENDCHAR
STARTCHAR breve
ENCODING 728
SWIDTH 464 0
DWIDTH 6 0
BBX 5 4 0 -1
BITMAP
6040
76C0
2F80
0240
ENDCHAR
STARTCHAR dotaccent
ENCODING 729
SWIDTH 388 0
DWIDTH 5 0
BBX 4 5 0 2
BITMAP
15
7F
3F
3F
10
ENDCHAR
STARTCHAR ring
ENCODING 730
SWIDTH 370 0
DWIDTH 4 0
BBX 4 4 0 3
BITMAP
29
66
29
14
ENDCHAR
STARTCHAR ogonek
ENCODING 731
SWIDTH 360 0
DWIDTH 4 0
BBX 4 4 0 0
BITMAP
30
70
79
2E
ENDCHAR
STARTCHAR tilde
ENCODING 732
SWIDTH 535 0
DWIDTH 6 0
BBX 6 3 0 -1
BITMAP
1180
7FE0
2D90
ENDCHAR
STARTCHAR hungarumlaut
ENCODING 733
SWIDTH 554 0
DWIDTH 7 0
BBX 7 5 0 8
BITMAP
0040
1DB4
39E0
7280
0100
ENDCHAR
STARTCHAR dotaccentcmb
ENCODING 775
SWIDTH 396 0
DWIDTH 5 0
BBX 4 5 0 4
BITMAP
04
7F
3F
3F
15
ENDCHAR
STARTCHAR uni030F
ENCODING 783
SWIDTH 549 0
DWIDTH 7 0
BBX 6 5 0 8
BITMAP
1040
76C0
39D0
0C70
0410
ENDCHAR
STARTCHAR uni0311
ENCODING 785
SWIDTH 490 0
DWIDTH 6 0
BBX 5 4 0 4
BITMAP
0500
3F80
36C0
6040
ENDCHAR
STARTCHAR uni0326
ENCODING 806
SWIDTH 360 0
DWIDTH 4 0
BBX 4 5 0 -1
BITMAP
3E
7E
7E
0A
09
ENDCHAR
STARTCHAR endash
ENCODING 8211
SWIDTH 478 0
DWIDTH 6 0
BBX 5 3 0 3
BITMAP
6A80
7F80
1540
ENDCHAR
STARTCHAR emdash
ENCODING 8212
SWIDTH 567 0
DWIDTH 7 0
BBX 6 3 0 3
BITMAP
6AA0
7FF0
1550
ENDCHAR
STARTCHAR quoteleft
ENCODING 8216
SWIDTH 373 0
DWIDTH 4 0
BBX 4 6 0 3
BITMAP
20
30
79
7F
7E
7E
ENDCHAR
STARTCHAR quoteright
ENCODING 8217
SWIDTH 369 0
DWIDTH 4 0
BBX 4 6 0 3
BITMAP
69
7E
7E
6E
0A
09
ENDCHAR
STARTCHAR quotesinglbase
ENCODING 8218
SWIDTH 369 0
DWIDTH 4 0
BBX 4 6 0 3
BITMAP
69
7E
7E
6E
0A
09
ENDCHAR
STARTCHAR quotedblleft
ENCODING 8220
SWIDTH 687 0
DWIDTH 8 0
BBX 8 6 0 3
BITMAP
2060
3070
7975
7FBE
7EBE
7E7E
ENDCHAR
STARTCHAR quotedblright
ENCODING 8221
SWIDTH 677 0
DWIDTH 8 0
BBX 8 6 0 3
BITMAP
6969
7EBD
7EBD
6D6D
090D
0D0C
ENDCHAR
STARTCHAR quotedblbase
ENCODING 8222
SWIDTH 697 0
DWIDTH 8 0
BBX 8 7 0 -4
BITMAP
1010
7E7E
7E7E
7E7E
1A1A
0A0A
0905
ENDCHAR
STARTCHAR ellipsis
ENCODING 8230
SWIDTH 1462 0
DWIDTH 18 0
BBX 17 5 0 0
BITMAP
0400100100
7E02F40FC0
3E02F40FC0
3E01F40FC0
1501500540
ENDCHAR
STARTCHAR guilsinglleft
ENCODING 8249
SWIDTH 459 0
DWIDTH 6 0
BBX 5 7 0 1
BITMAP
0540
1F80
2F00
BD00
7D00
2F00
0BC0
ENDCHAR
STARTCHAR guilsinglright
ENCODING 8250
SWIDTH 432 0
DWIDTH 5 0
BBX 5 7 0 1
BITMAP
5400
7D00
1F00
0B80
0F80
2E00
7C00
ENDCHAR
STARTCHAR fraction
ENCODING 8260
SWIDTH 371 0
DWIDTH 4 0
BBX 4 9 0 0
BITMAP
BE
3F
2E
2D
2D
2D
1D
1C
1C
ENDCHAR
STARTCHAR Euro
ENCODING 8364
SWIDTH 587 0
DWIDTH 7 0
BBX 7 11 0 -2
BITMAP
06D0
1FF4
2FF4
2FF4
2EB4
6E10
6E50
0EB0
0BE0
0180
0100
ENDCHAR
STARTCHAR trademark
ENCODING 8482
SWIDTH 785 0
DWIDTH 9 0
BBX 9 6 0 3
BITMAP
BE7780
7E3F80
6D3F80
1C2F40
182A40
181000
ENDCHAR
STARTCHAR minus
ENCODING 8722
SWIDTH 478 0
DWIDTH 6 0
BBX 5 3 0 3
BITMAP
6A80
7F80
1540
ENDCHAR
STARTCHAR commaaccent
ENCODING 63171
SWIDTH 360 0
DWIDTH 4 0
BBX 4 6 0 -2
BITMAP
7E
7E
7E
5A
0A
09
ENDCHAR
STARTCHAR .notdef
ENCODING -1
SWIDTH 365 0
DWIDTH 4 0
BBX 4 8 0 0
BITMAP
55
41
41
41
41
41
41
55
ENDCHAR
STARTCHAR .null
ENCODING -1
SWIDTH 0 0
DWIDTH 0 0
BBX 1 1 0 0
BITMAP
00
ENDCHAR
STARTCHAR nonmarkingreturn
ENCODING -1
SWIDTH 333 0
DWIDTH 4 0
BBX 1 1 0 0
BITMAP
00
ENDCHAR
ENDFONT
